<svg width="48" height="48" viewBox="0 0 48 48" fill="none" xmlns="http://www.w3.org/2000/svg">
<rect x="0.5" y="0.5" width="47" height="47" rx="23.5" fill="white"/>
<rect x="0.5" y="0.5" width="47" height="47" rx="23.5" stroke="#E4ECF5"/>
<path d="M33.0001 26.0004C33.0001 26.1993 32.9211 26.3901 32.7804 26.5307C32.6398 26.6714 32.449 26.7504 32.2501 26.7504H17.5604L23.0307 32.2198C23.1004 32.2895 23.1557 32.3722 23.1934 32.4632C23.2311 32.5543 23.2505 32.6519 23.2505 32.7504C23.2505 32.849 23.2311 32.9465 23.1934 33.0376C23.1557 33.1286 23.1004 33.2114 23.0307 33.281C22.961 33.3507 22.8783 33.406 22.7873 33.4437C22.6962 33.4814 22.5986 33.5008 22.5001 33.5008C22.4016 33.5008 22.304 33.4814 22.2129 33.4437C22.1219 33.406 22.0392 33.3507 21.9695 33.281L15.2195 26.531C15.1497 26.4614 15.0944 26.3787 15.0567 26.2876C15.0189 26.1966 14.9995 26.099 14.9995 26.0004C14.9995 25.9019 15.0189 25.8043 15.0567 25.7132C15.0944 25.6222 15.1497 25.5394 15.2195 25.4698L21.9695 18.7198C22.1102 18.5791 22.3011 18.5 22.5001 18.5C22.6991 18.5 22.89 18.5791 23.0307 18.7198C23.1715 18.8605 23.2505 19.0514 23.2505 19.2504C23.2505 19.4494 23.1715 19.6403 23.0307 19.781L17.5604 25.2504H32.2501C32.449 25.2504 32.6398 25.3294 32.7804 25.4701C32.9211 25.6107 33.0001 25.8015 33.0001 26.0004Z" fill="#6A727D"/>
</svg>
