<svg width="48" height="48" viewBox="0 0 48 48" fill="none" xmlns="http://www.w3.org/2000/svg">
<rect x="0.5" y="0.5" width="47" height="47" rx="23.5" fill="white"/>
<rect x="0.5" y="0.5" width="47" height="47" rx="23.5" stroke="#E4ECF5"/>
<path d="M14.9999 26.0004C14.9999 26.1993 15.0789 26.3901 15.2196 26.5307C15.3602 26.6714 15.551 26.7504 15.7499 26.7504H30.4396L24.9693 32.2198C24.8996 32.2895 24.8443 32.3722 24.8066 32.4632C24.7689 32.5543 24.7495 32.6519 24.7495 32.7504C24.7495 32.849 24.7689 32.9465 24.8066 33.0376C24.8443 33.1286 24.8996 33.2114 24.9693 33.281C25.039 33.3507 25.1217 33.406 25.2127 33.4437C25.3038 33.4814 25.4014 33.5008 25.4999 33.5008C25.5984 33.5008 25.696 33.4814 25.7871 33.4437C25.8781 33.406 25.9608 33.3507 26.0305 33.281L32.7805 26.531C32.8503 26.4614 32.9056 26.3787 32.9433 26.2876C32.9811 26.1966 33.0005 26.099 33.0005 26.0004C33.0005 25.9019 32.9811 25.8043 32.9433 25.7132C32.9056 25.6222 32.8503 25.5394 32.7805 25.4698L26.0305 18.7198C25.8898 18.5791 25.6989 18.5 25.4999 18.5C25.3009 18.5 25.11 18.5791 24.9693 18.7198C24.8285 18.8605 24.7495 19.0514 24.7495 19.2504C24.7495 19.4494 24.8285 19.6403 24.9693 19.781L30.4396 25.2504H15.7499C15.551 25.2504 15.3602 25.3294 15.2196 25.4701C15.0789 25.6107 14.9999 25.8015 14.9999 26.0004Z" fill="#6A727D"/>
</svg>
