<svg xmlns="http://www.w3.org/2000/svg" xmlns:xlink="http://www.w3.org/1999/xlink" viewBox="0 0 1000 1000" width="1000" height="1000" preserveAspectRatio="xMidYMid meet" style="width: 100%; height: 100%; transform: translate3d(0px, 0px, 0px); content-visibility: visible;"><defs><clipPath id="__lottie_element_914"><rect width="1000" height="1000" x="0" y="0"></rect></clipPath></defs><g clip-path="url(#__lottie_element_914)"><g transform="matrix(1.0000089406967163,0,0,1.0000089406967163,499.9983215332031,500.10546875)" opacity="1" style="display: block;"><g opacity="1" transform="matrix(1,0,0,1,0,0)"><path fill="rgb(255,255,255)" fill-opacity="1" d=" M-13.536999702453613,266.69500732421875 C-13.536999702453613,266.69500732421875 387.8680114746094,326.625 387.8680114746094,326.625 C396.6780090332031,327.94000244140625 404.5979919433594,321.1159973144531 404.5979919433594,312.2080078125 C404.5979919433594,312.2080078125 404.5979919433594,-146.02999877929688 404.5979919433594,-146.02999877929688 C404.5979919433594,-154.93800354003906 396.6780090332031,-161.76199340820312 387.8680114746094,-160.44700622558594 C387.8680114746094,-160.44700622558594 -13.536999702453613,-100.51699829101562 -13.536999702453613,-100.51699829101562 C-20.677000045776367,-99.45099639892578 -25.961999893188477,-93.31999969482422 -25.961999893188477,-86.0999984741211 C-25.961999893188477,-86.0999984741211 -25.961999893188477,252.2779998779297 -25.961999893188477,252.2779998779297 C-25.961999893188477,259.49798583984375 -20.677000045776367,265.6289978027344 -13.536999702453613,266.69500732421875z"></path></g><g opacity="1" transform="matrix(1,0,0,1,0,0)"><path fill="rgb(0,0,0)" fill-opacity="1" d=" M-25.961999893188477,-71.12899780273438 C-25.961999893188477,-89.81800079345703 -26.750999450683594,-98.33799743652344 -3.9230000972747803,-101.61199951171875 C-3.9230000972747803,-101.61199951171875 387.8680114746094,-160.447998046875 387.8680114746094,-160.447998046875 C396.6780090332031,-161.75799560546875 404.5979919433594,-154.93899536132812 404.5979919433594,-146.0290069580078 C404.5979919433594,-146.0290069580078 404.5979919433594,-89.43800354003906 404.5979919433594,-89.43800354003906 C404.5979919433594,-89.43800354003906 -25.961999893188477,-36.064998626708984 -25.961999893188477,-36.064998626708984 C-25.961999893188477,-36.064998626708984 -25.961999893188477,-71.12899780273438 -25.961999893188477,-71.12899780273438z"></path></g><g opacity="1" transform="matrix(1,0,0,1,0,0)"><path fill="rgb(255,255,255)" fill-opacity="1" d=" M340.8739929199219,-121.0739974975586 C340.8739929199219,-110.02799987792969 347.44000244140625,-101.0739974975586 355.5400085449219,-101.0739974975586 C363.6400146484375,-101.0739974975586 370.2070007324219,-110.02799987792969 370.2070007324219,-121.0739974975586 C370.2070007324219,-132.1199951171875 363.6400146484375,-141.07400512695312 355.5400085449219,-141.07400512695312 C347.44000244140625,-141.07400512695312 340.8739929199219,-132.1199951171875 340.8739929199219,-121.0739974975586z"></path></g><g opacity="1" transform="matrix(1,0,0,1,0,0)"><path fill="rgb(255,255,255)" fill-opacity="1" d=" M277.7300109863281,-113.66799926757812 C277.7300109863281,-102.62200164794922 284.2969970703125,-93.66799926757812 292.3970031738281,-93.66799926757812 C300.49700927734375,-93.66799926757812 307.0639953613281,-102.62200164794922 307.0639953613281,-113.66799926757812 C307.0639953613281,-124.71399688720703 300.49700927734375,-133.66799926757812 292.3970031738281,-133.66799926757812 C284.2969970703125,-133.66799926757812 277.7300109863281,-124.71399688720703 277.7300109863281,-113.66799926757812z"></path></g><g opacity="1" transform="matrix(1,0,0,1,0,0)"><path stroke-linecap="round" stroke-linejoin="round" fill-opacity="0" stroke="rgb(0,0,0)" stroke-opacity="1" stroke-width="8" d=" M-13.536999702453613,266.69500732421875 C-13.536999702453613,266.69500732421875 387.8680114746094,326.625 387.8680114746094,326.625 C396.6780090332031,327.94000244140625 404.5979919433594,321.1159973144531 404.5979919433594,312.2080078125 C404.5979919433594,312.2080078125 404.5979919433594,-146.02999877929688 404.5979919433594,-146.02999877929688 C404.5979919433594,-154.93800354003906 396.6780090332031,-161.76199340820312 387.8680114746094,-160.44700622558594 C387.8680114746094,-160.44700622558594 -13.536999702453613,-100.51699829101562 -13.536999702453613,-100.51699829101562 C-20.677000045776367,-99.45099639892578 -25.961999893188477,-93.31999969482422 -25.961999893188477,-86.0999984741211 C-25.961999893188477,-86.0999984741211 -25.961999893188477,252.2779998779297 -25.961999893188477,252.2779998779297 C-25.961999893188477,259.49798583984375 -20.677000045776367,265.6289978027344 -13.536999702453613,266.69500732421875z"></path></g><g opacity="1" transform="matrix(1,0,0,1,0,0)"><g opacity="1" transform="matrix(1,0,0,1,0,0)"><path stroke-linecap="butt" stroke-linejoin="miter" fill-opacity="0" stroke-miterlimit="10" stroke="rgb(255,105,97)" stroke-opacity="1" stroke-width="8" d=" M294.0870056152344,130.45599365234375 C294.0870056152344,130.45599365234375 336.2080078125,130.94200134277344 336.2080078125,130.94200134277344 C342.6719970703125,131.01699829101562 347.8739929199219,136.2779998779297 347.8739929199219,142.7429962158203 C347.8739929199219,142.7429962158203 347.8739929199219,256.07000732421875 347.8739929199219,256.07000732421875 C347.8739929199219,263.0830078125 341.79400634765625,268.54901123046875 334.82000732421875,267.80499267578125 C334.82000732421875,267.80499267578125 292.697998046875,263.30999755859375 292.697998046875,263.30999755859375 C286.6990051269531,262.6700134277344 282.14898681640625,257.6080017089844 282.14898681640625,251.5749969482422 C282.14898681640625,251.5749969482422 282.14898681640625,142.2570037841797 282.14898681640625,142.2570037841797 C282.14898681640625,135.68600463867188 287.5159912109375,130.3800048828125 294.0870056152344,130.45599365234375z"></path></g><g opacity="1" transform="matrix(1,0,0,1,0,0)"><path stroke-linecap="round" stroke-linejoin="round" fill-opacity="0" stroke="rgb(255,105,97)" stroke-opacity="1" stroke-width="8" d=" M18.540000915527344,139.26100158691406 C18.540000915527344,139.26100158691406 232.87399291992188,149.59500122070312 232.87399291992188,149.59500122070312"></path></g><g opacity="1" transform="matrix(1,0,0,1,0,0)"><path stroke-linecap="round" stroke-linejoin="round" fill-opacity="0" stroke="rgb(255,105,97)" stroke-opacity="1" stroke-width="8" d=" M18.540000915527344,188.83099365234375 C18.540000915527344,188.83099365234375 232.87399291992188,210.16400146484375 232.87399291992188,210.16400146484375"></path></g><g opacity="1" transform="matrix(1,0,0,1,0,0)"><g opacity="1" transform="matrix(1,0,0,1,0,0)"><path stroke-linecap="butt" stroke-linejoin="miter" fill-opacity="0" stroke-miterlimit="10" stroke="rgb(255,105,97)" stroke-opacity="1" stroke-width="8" d=" M20.788000106811523,-11.814000129699707 C20.788000106811523,-11.814000129699707 335.2380065917969,-44.814998626708984 335.2380065917969,-44.814998626708984 C341.9930114746094,-45.52399826049805 347.8739929199219,-40.22700119018555 347.8739929199219,-33.435001373291016 C347.8739929199219,-33.435001373291016 347.8739929199219,80.44000244140625 347.8739929199219,80.44000244140625 C347.8739929199219,86.7969970703125 342.6910095214844,91.93599700927734 336.3340148925781,91.88200378417969 C336.3340148925781,91.88200378417969 21.884000778198242,89.18599700927734 21.884000778198242,89.18599700927734 C15.602999687194824,89.13200378417969 10.539999961853027,84.0260009765625 10.539999961853027,77.74500274658203 C10.539999961853027,77.74500274658203 10.539999961853027,-0.4350000023841858 10.539999961853027,-0.4350000023841858 C10.539999961853027,-6.291999816894531 14.963000297546387,-11.20300006866455 20.788000106811523,-11.814000129699707z"></path></g><g opacity="1" transform="matrix(1,0,0,1,0,0)"><path stroke-linecap="butt" stroke-linejoin="miter" fill-opacity="0" stroke-miterlimit="10" stroke="rgb(255,105,97)" stroke-opacity="1" stroke-width="8" d=" M15.248000144958496,86.98200225830078 C15.248000144958496,86.98200225830078 343.24700927734375,-42.624000549316406 343.24700927734375,-42.624000549316406"></path></g><g opacity="1" transform="matrix(1,0,0,1,0,0)"><path stroke-linecap="butt" stroke-linejoin="miter" fill-opacity="0" stroke-miterlimit="10" stroke="rgb(255,105,97)" stroke-opacity="1" stroke-width="8" d=" M14.550000190734863,-9.119999885559082 C14.550000190734863,-9.119999885559082 344.64898681640625,88.38899993896484 344.64898681640625,88.38899993896484"></path></g></g></g></g><g style="display: block;" transform="matrix(1,-0.000007725211617071182,0.000007725211617071182,1,529.7000122070312,498.1840515136719)" opacity="1"><g opacity="1" transform="matrix(1,0,0,1,0,0)"><path fill="rgb(0,0,0)" fill-opacity="1" d=" M-197.99899291992188,182.6649932861328 C-197.99899291992188,182.6649932861328 203.406005859375,242.5959930419922 203.406005859375,242.5959930419922 C212.21600341796875,243.91099548339844 220.13600158691406,237.08599853515625 220.13600158691406,228.17799377441406 C220.13600158691406,228.17799377441406 220.13600158691406,-230.05999755859375 220.13600158691406,-230.05999755859375 C220.13600158691406,-238.96800231933594 212.21600341796875,-245.79200744628906 203.406005859375,-244.4770050048828 C203.406005859375,-244.4770050048828 -197.99899291992188,-184.5469970703125 -197.99899291992188,-184.5469970703125 C-205.13900756835938,-183.4810028076172 -210.4239959716797,-177.3489990234375 -210.4239959716797,-170.12899780273438 C-210.4239959716797,-170.12899780273438 -210.4239959716797,168.2480010986328 -210.4239959716797,168.2480010986328 C-210.4239959716797,175.46800231933594 -205.13900756835938,181.5989990234375 -197.99899291992188,182.6649932861328z"></path></g><g opacity="1" transform="matrix(1,0,0,1,0,0)"><path fill="rgb(255,255,255)" fill-opacity="1" d=" M-210.4239959716797,-185.8699951171875 C-210.4239959716797,-185.8699951171875 203.406005859375,-244.47799682617188 203.406005859375,-244.47799682617188 C212.21600341796875,-245.78799438476562 220.13600158691406,-238.96800231933594 220.13600158691406,-230.05799865722656 C220.13600158691406,-230.05799865722656 220.13600158691406,-173.46800231933594 220.13600158691406,-173.46800231933594 C220.13600158691406,-173.46800231933594 -210.4239959716797,-118.18900299072266 -210.4239959716797,-118.18900299072266 C-210.4239959716797,-118.18900299072266 -210.4239959716797,-185.8699951171875 -210.4239959716797,-185.8699951171875z"></path></g><g opacity="1" transform="matrix(1,0,0,1,0,0)"><path fill="rgb(0,0,0)" fill-opacity="1" d=" M154.1320037841797,-204.07000732421875 C154.1320037841797,-193.0240020751953 160.697998046875,-184.07000732421875 168.79800415039062,-184.07000732421875 C176.8979949951172,-184.07000732421875 183.46499633789062,-193.0240020751953 183.46499633789062,-204.07000732421875 C183.46499633789062,-215.11599731445312 176.8979949951172,-224.07000732421875 168.79800415039062,-224.07000732421875 C160.697998046875,-224.07000732421875 154.1320037841797,-215.11599731445312 154.1320037841797,-204.07000732421875z"></path></g><g opacity="1" transform="matrix(1,0,0,1,0,0)"><path fill="rgb(0,0,0)" fill-opacity="1" d=" M90.98799896240234,-195.66400146484375 C90.98799896240234,-184.6179962158203 97.55500030517578,-175.66400146484375 105.65499877929688,-175.66400146484375 C113.75499725341797,-175.66400146484375 120.32099914550781,-184.6179962158203 120.32099914550781,-195.66400146484375 C120.32099914550781,-206.7100067138672 113.75499725341797,-215.66400146484375 105.65499877929688,-215.66400146484375 C97.55500030517578,-215.66400146484375 90.98799896240234,-206.7100067138672 90.98799896240234,-195.66400146484375z"></path></g><g opacity="1" transform="matrix(1,0,0,1,0,0)"><path stroke-linecap="round" stroke-linejoin="round" fill-opacity="0" stroke="rgb(0,0,0)" stroke-opacity="1" stroke-width="8" d=" M-197.99899291992188,182.6649932861328 C-197.99899291992188,182.6649932861328 203.406005859375,242.5959930419922 203.406005859375,242.5959930419922 C212.21600341796875,243.91099548339844 220.13600158691406,237.08599853515625 220.13600158691406,228.17799377441406 C220.13600158691406,228.17799377441406 220.13600158691406,-230.05999755859375 220.13600158691406,-230.05999755859375 C220.13600158691406,-238.96800231933594 212.21600341796875,-245.79200744628906 203.406005859375,-244.4770050048828 C203.406005859375,-244.4770050048828 -197.99899291992188,-184.5469970703125 -197.99899291992188,-184.5469970703125 C-205.13900756835938,-183.4810028076172 -210.4239959716797,-177.3489990234375 -210.4239959716797,-170.12899780273438 C-210.4239959716797,-170.12899780273438 -210.4239959716797,168.2480010986328 -210.4239959716797,168.2480010986328 C-210.4239959716797,175.46800231933594 -205.13900756835938,181.5989990234375 -197.99899291992188,182.6649932861328z"></path></g><g opacity="1" transform="matrix(1,0,0,1,0,0)"><g opacity="1" transform="matrix(0.4646399915218353,0,0,1.029099941253662,41.78453063964844,1.5165786743164062)"><g opacity="1" transform="matrix(1,0,0,1,0,0)"><path stroke-linecap="round" stroke-linejoin="round" fill-opacity="0" stroke="rgb(0,188,108)" stroke-opacity="1" stroke-width="11" d=" M222.30499267578125,121.4749984741211 C222.30499267578125,121.4749984741211 329.37200927734375,124.66400146484375 329.37200927734375,124.66400146484375"></path></g><g opacity="1" transform="matrix(1,0,0,1,0,0)"><path stroke-linecap="round" stroke-linejoin="round" fill-opacity="0" stroke="rgb(0,188,108)" stroke-opacity="1" stroke-width="11" d=" M21.076000213623047,113.94400024414062 C21.076000213623047,113.94400024414062 128.14199829101562,117.13300323486328 128.14199829101562,117.13300323486328"></path></g></g><g opacity="1" transform="matrix(1,0,0,1,41.78499984741211,1.5160000324249268)"><path stroke-linecap="round" stroke-linejoin="round" fill-opacity="0" stroke="rgb(0,188,108)" stroke-opacity="1" stroke-width="11" d=" M39.85599899291992,48.60200119018555 C39.85599899291992,48.60200119018555 131.85800170898438,48.38999938964844 131.85800170898438,48.38999938964844"></path></g><g opacity="1" transform="matrix(1,0,0,1,0,0)"><g opacity="1" transform="matrix(1,0,0,1,0,0)"><path fill="rgb(0,188,108)" fill-opacity="1" d=" M-104.24600219726562,87.27999877929688 C-105.38899993896484,87.15599822998047 -106.48600006103516,86.60099792480469 -107.27100372314453,85.64099884033203 C-108.86000061035156,83.69999694824219 -108.5739974975586,80.83799743652344 -106.63200378417969,79.2490005493164 C-106.63200378417969,79.2490005493164 -85.89900207519531,62.284000396728516 -85.89900207519531,62.284000396728516 C-85.89900207519531,62.284000396728516 -105.16400146484375,43.66999816894531 -105.16400146484375,43.66999816894531 C-106.96800231933594,41.92599868774414 -107.01699829101562,39.05099868774414 -105.27400207519531,37.24700164794922 C-103.53099822998047,35.444000244140625 -100.65499877929688,35.39400100708008 -98.85099792480469,37.13600158691406 C-98.85099792480469,37.13600158691406 -75.91400146484375,59.29899978637695 -75.91400146484375,59.29899978637695 C-74.98200225830078,60.20100021362305 -74.47899627685547,61.457000732421875 -74.53199768066406,62.75299835205078 C-74.58499908447266,64.04900360107422 -75.19000244140625,65.25900268554688 -76.19400024414062,66.08100128173828 C-76.19400024414062,66.08100128173828 -100.87899780273438,86.27999877929688 -100.87899780273438,86.27999877929688 C-101.86000061035156,87.08300018310547 -103.0770034790039,87.40699768066406 -104.24600219726562,87.27999877929688z"></path></g></g><g opacity="1" transform="matrix(1,0,0,1,0,0)"><g opacity="1" transform="matrix(1,0,0,1,0,0)"><path fill="rgb(0,188,108)" fill-opacity="1" d=" M-121.36399841308594,99.08200073242188 C-123.13400268554688,98.88999938964844 -124.69999694824219,97.66000366210938 -125.23300170898438,95.84500122070312 C-125.23300170898438,95.84500122070312 -144.57899475097656,29.98900032043457 -144.57899475097656,29.98900032043457 C-145.28599548339844,27.582000732421875 -143.90899658203125,25.058000564575195 -141.5019989013672,24.35099983215332 C-139.09500122070312,23.64299964904785 -136.57000732421875,25.020000457763672 -135.86300659179688,27.42799949645996 C-135.86300659179688,27.42799949645996 -116.51699829101562,93.28399658203125 -116.51699829101562,93.28399658203125 C-115.80999755859375,95.69100189208984 -117.18800354003906,98.21499633789062 -119.59500122070312,98.9219970703125 C-120.18699645996094,99.09600067138672 -120.78700256347656,99.1449966430664 -121.36399841308594,99.08200073242188z"></path></g></g><g opacity="1" transform="matrix(1,0,0,1,0,0)"><g opacity="1" transform="matrix(1,0,0,1,0,0)"><path fill="rgb(0,188,108)" fill-opacity="1" d=" M-161.447998046875,84.4990005493164 C-162.41600036621094,84.39399719238281 -163.35699462890625,83.97899627685547 -164.11099243164062,83.2509994506836 C-164.11099243164062,83.2509994506836 -187.0489959716797,61.0880012512207 -187.0489959716797,61.0880012512207 C-187.98199462890625,60.18600082397461 -188.48399353027344,58.93000030517578 -188.43099975585938,57.63399887084961 C-188.3780059814453,56.3380012512207 -187.7729949951172,55.125999450683594 -186.7689971923828,54.30500030517578 C-186.7689971923828,54.30500030517578 -162.08399963378906,34.106998443603516 -162.08399963378906,34.106998443603516 C-160.14300537109375,32.51900100708008 -157.281005859375,32.80400085449219 -155.69200134277344,34.74700164794922 C-154.10299682617188,36.6879997253418 -154.38900756835938,39.54999923706055 -156.33099365234375,41.138999938964844 C-156.33099365234375,41.138999938964844 -177.06399536132812,58.10300064086914 -177.06399536132812,58.10300064086914 C-177.06399536132812,58.10300064086914 -157.7989959716797,76.71700286865234 -157.7989959716797,76.71700286865234 C-155.9949951171875,78.46099853515625 -155.9459991455078,81.33699798583984 -157.68899536132812,83.14099884033203 C-158.70399475097656,84.19100189208984 -160.1009979248047,84.6449966430664 -161.447998046875,84.4990005493164z"></path></g></g><g opacity="1" transform="matrix(1,0,0,1,0,0)"><g opacity="1" transform="matrix(1,0,0,1,0,0)"><path fill="rgb(0,188,108)" fill-opacity="1" d=" M148.5030059814453,-14.0649995803833 C146.85800170898438,-14.0649995803833 145.21200561523438,-14.6850004196167 143.9459991455078,-15.930000305175781 C141.38600158691406,-18.44700050354004 141.3520050048828,-22.562000274658203 143.86900329589844,-25.12299919128418 C143.86900329589844,-25.12299919128418 170.74600219726562,-52.45800018310547 170.74600219726562,-52.45800018310547 C170.74600219726562,-52.45800018310547 140.46400451660156,-75.96600341796875 140.46400451660156,-75.96600341796875 C137.6280059814453,-78.16799926757812 137.11399841308594,-82.2509994506836 139.3159942626953,-85.08699798583984 C141.51699829101562,-87.9209976196289 145.6009979248047,-88.43499755859375 148.43600463867188,-86.23600006103516 C148.43600463867188,-86.23600006103516 184.49000549316406,-58.24700164794922 184.49000549316406,-58.24700164794922 C185.95599365234375,-57.108001708984375 186.86599731445312,-55.39799880981445 186.99000549316406,-53.54600143432617 C187.11399841308594,-51.694000244140625 186.44000244140625,-49.87799835205078 185.13900756835938,-48.55400085449219 C185.13900756835938,-48.55400085449219 153.13800048828125,-16.006999969482422 153.13800048828125,-16.006999969482422 C151.86599731445312,-14.713000297546387 150.18499755859375,-14.0649995803833 148.5030059814453,-14.0649995803833z"></path></g></g><g opacity="1" transform="matrix(1,0,0,1,0,0)"><g opacity="1" transform="matrix(1,0,0,1,0,0)"><path fill="rgb(0,188,108)" fill-opacity="1" d=" M125.97100067138672,5.368000030517578 C123.4229965209961,5.368000030517578 121.00499725341797,3.859999895095825 119.96600341796875,1.3600000143051147 C119.96600341796875,1.3600000143051147 82.2760009765625,-89.34500122070312 82.2760009765625,-89.34500122070312 C80.89900207519531,-92.66000366210938 82.47000122070312,-96.46399688720703 85.78500366210938,-97.84100341796875 C89.0999984741211,-99.22000122070312 92.90399932861328,-97.64900207519531 94.28099822998047,-94.33300018310547 C94.28099822998047,-94.33300018310547 131.9709930419922,-3.628000020980835 131.9709930419922,-3.628000020980835 C133.34800720214844,-0.31299999356269836 131.7779998779297,3.490999937057495 128.46299743652344,4.868000030517578 C127.64800262451172,5.206999778747559 126.802001953125,5.368000030517578 125.97100067138672,5.368000030517578z"></path></g></g><g opacity="1" transform="matrix(1,0,0,1,0,0)"><g opacity="1" transform="matrix(1,0,0,1,0,0)"><path fill="rgb(0,188,108)" fill-opacity="1" d=" M66.69200134277344,-9.1899995803833 C65.29900360107422,-9.1899995803833 63.895999908447266,-9.635000228881836 62.71099853515625,-10.555000305175781 C62.71099853515625,-10.555000305175781 26.656999588012695,-38.54499816894531 26.656999588012695,-38.54499816894531 C25.19099998474121,-39.683998107910156 24.2810001373291,-41.39400100708008 24.156999588012695,-43.24599838256836 C24.033000946044922,-45.0989990234375 24.707000732421875,-46.915000915527344 26.007999420166016,-48.237998962402344 C26.007999420166016,-48.237998962402344 58.00899887084961,-80.78399658203125 58.00899887084961,-80.78399658203125 C60.525001525878906,-83.34300231933594 64.64099884033203,-83.37999725341797 67.20099639892578,-80.86100006103516 C69.76100158691406,-78.34400177001953 69.79499816894531,-74.22899627685547 67.27799987792969,-71.66799926757812 C67.27799987792969,-71.66799926757812 40.4010009765625,-44.33300018310547 40.4010009765625,-44.33300018310547 C40.4010009765625,-44.33300018310547 70.68199920654297,-20.825000762939453 70.68199920654297,-20.825000762939453 C73.51799774169922,-18.62299919128418 74.03299713134766,-14.539999961853027 71.83100128173828,-11.704000473022461 C70.55000305175781,-10.053999900817871 68.63099670410156,-9.1899995803833 66.69200134277344,-9.1899995803833z"></path></g></g><g opacity="1" transform="matrix(1,0,0,1,0,0)"><path stroke-linecap="round" stroke-linejoin="round" fill-opacity="0" stroke="rgb(0,188,108)" stroke-opacity="1" stroke-width="11" d=" M-181.1439971923828,-8.39799976348877 C-181.1439971923828,-8.39799976348877 -89.14199829101562,-8.609999656677246 -89.14199829101562,-8.609999656677246"></path></g><g opacity="1" transform="matrix(1,0,0,1,0,0)"><path stroke-linecap="round" stroke-linejoin="round" fill-opacity="0" stroke="rgb(0,188,108)" stroke-opacity="1" stroke-width="11" d=" M-181.1439971923828,-64 C-181.1439971923828,-64 -36.47700119018555,-75.33300018310547 -36.47700119018555,-75.33300018310547"></path></g></g></g><g style="display: block;" transform="matrix(1,-0.000005082372354081599,0.000005082372354081599,1,500.03350830078125,500.0124816894531)" opacity="1"><g opacity="1" transform="matrix(1,0,0,1,0,0)"><path fill="rgb(255,255,255)" fill-opacity="1" d=" M-392.1730041503906,100.51699829101562 C-392.1730041503906,100.51699829101562 9.232000350952148,160.44700622558594 9.232000350952148,160.44700622558594 C18.04199981689453,161.76199340820312 25.961999893188477,154.93800354003906 25.961999893188477,146.02999877929688 C25.961999893188477,146.02999877929688 25.961999893188477,-312.2080078125 25.961999893188477,-312.2080078125 C25.961999893188477,-321.1159973144531 18.04199981689453,-327.94000244140625 9.232000350952148,-326.625 C9.232000350952148,-326.625 -392.1730041503906,-266.69500732421875 -392.1730041503906,-266.69500732421875 C-399.31298828125,-265.6289978027344 -404.5979919433594,-259.49798583984375 -404.5979919433594,-252.2779998779297 C-404.5979919433594,-252.2779998779297 -404.5979919433594,86.0999984741211 -404.5979919433594,86.0999984741211 C-404.5979919433594,93.31999969482422 -399.31298828125,99.45099639892578 -392.1730041503906,100.51699829101562z"></path></g><g opacity="1" transform="matrix(1,0,0,1,0,0)"><path fill="rgb(0,0,0)" fill-opacity="1" d=" M-404.5979919433594,-252.27499389648438 C-404.5979919433594,-252.27499389648438 -404.5979919433594,-204.61500549316406 -404.5979919433594,-204.61500549316406 C-404.5979919433594,-204.61500549316406 25.961999893188477,-255.61500549316406 25.961999893188477,-255.61500549316406 C25.961999893188477,-255.61500549316406 25.961999893188477,-312.2049865722656 25.961999893188477,-312.2049865722656 C25.961999893188477,-321.114990234375 18.04199981689453,-327.93499755859375 9.232000350952148,-326.625 C9.232000350952148,-326.625 -392.1780090332031,-266.69500732421875 -392.1780090332031,-266.69500732421875 C-399.3179931640625,-265.625 -404.5979919433594,-259.4949951171875 -404.5979919433594,-252.27499389648438z"></path></g><g opacity="1" transform="matrix(1,0,0,1,0,0)"><path fill="rgb(255,255,255)" fill-opacity="1" d=" M-42.26499938964844,-285.7749938964844 C-42.26499938964844,-274.72900390625 -35.698001861572266,-265.7749938964844 -27.597999572753906,-265.7749938964844 C-19.49799919128418,-265.7749938964844 -12.930999755859375,-274.72900390625 -12.930999755859375,-285.7749938964844 C-12.930999755859375,-296.8210144042969 -19.49799919128418,-305.7749938964844 -27.597999572753906,-305.7749938964844 C-35.698001861572266,-305.7749938964844 -42.26499938964844,-296.8210144042969 -42.26499938964844,-285.7749938964844z"></path></g><g opacity="1" transform="matrix(1,0,0,1,0,0)"><path fill="rgb(255,255,255)" fill-opacity="1" d=" M-105.40799713134766,-277.3689880371094 C-105.40799713134766,-266.322998046875 -98.84100341796875,-257.3689880371094 -90.74099731445312,-257.3689880371094 C-82.64099884033203,-257.3689880371094 -76.07499694824219,-266.322998046875 -76.07499694824219,-277.3689880371094 C-76.07499694824219,-288.4150085449219 -82.64099884033203,-297.3689880371094 -90.74099731445312,-297.3689880371094 C-98.84100341796875,-297.3689880371094 -105.40799713134766,-288.4150085449219 -105.40799713134766,-277.3689880371094z"></path></g><g opacity="1" transform="matrix(0.9997039437294006,0,0,0.9997039437294006,-0.01723480224609375,0.008230209350585938)"><path fill="rgb(253,236,83)" fill-opacity="1" d=" M-80.20600128173828,102.71499633789062 C-80.20600128173828,102.71499633789062 -34.1879997253418,107.6259994506836 -34.1879997253418,107.6259994506836 C-25.22100067138672,108.58300018310547 -17.402000427246094,101.55400085449219 -17.402000427246094,92.53600311279297 C-17.402000427246094,92.53600311279297 -17.402000427246094,-35.130001068115234 -17.402000427246094,-35.130001068115234 C-17.402000427246094,-43.80500030517578 -24.660999298095703,-50.7140007019043 -33.32500076293945,-50.2869987487793 C-33.32500076293945,-50.2869987487793 -79.34300231933594,-48.016998291015625 -79.34300231933594,-48.016998291015625 C-87.42400360107422,-47.61800003051758 -93.77100372314453,-40.95000076293945 -93.77100372314453,-32.86000061035156 C-93.77100372314453,-32.86000061035156 -93.77100372314453,87.625 -93.77100372314453,87.625 C-93.77100372314453,95.38300323486328 -87.91999816894531,101.89199829101562 -80.20600128173828,102.71499633789062z"></path></g><g opacity="1" transform="matrix(1,0,0,1,0,0)"><g opacity="1" transform="matrix(1,0,0,1,0,0)"><path fill="rgb(56,136,255)" fill-opacity="1" d=" M-398.0450134277344,-70.45099639892578 C-398.0450134277344,-70.45099639892578 24.14299964904785,-91.97000122070312 24.14299964904785,-91.97000122070312 C24.14299964904785,-91.97000122070312 23.767000198364258,-255.35499572753906 23.767000198364258,-255.35499572753906 C23.767000198364258,-255.35499572753906 -398.47698974609375,-205.08700561523438 -398.47698974609375,-205.08700561523438 C-398.47698974609375,-205.08700561523438 -398.0450134277344,-70.45099639892578 -398.0450134277344,-70.45099639892578z"></path></g><g opacity="1" transform="matrix(1,0,0,1,0,0)"><path fill="rgb(253,236,83)" fill-opacity="1" d=" M-404.5979919433594,-204.61500549316406 C-404.5979919433594,-204.61500549316406 -404.5979919433594,-70.45099639892578 -404.5979919433594,-70.45099639892578 C-404.5979919433594,-70.45099639892578 -176.79510498046875,-81.18151092529297 -176.79510498046875,-81.18151092529297 C-200.6951141357422,-138.71151733398438 -250.85174560546875,-190.83656311035156 -317.7017517089844,-214.90655517578125 C-317.7017517089844,-214.90655517578125 -404.5979919433594,-204.61500549316406 -404.5979919433594,-204.61500549316406z"></path></g></g><g opacity="1" transform="matrix(1,0,0,1,0,0)"><g opacity="1" transform="matrix(1,0,0,1,0,0)"><path fill="rgb(255,255,255)" fill-opacity="1" d=" M-120.5719985961914,-167.91600036621094 C-120.5719985961914,-167.91600036621094 -292.239013671875,-150.91600036621094 -292.239013671875,-150.91600036621094"></path><path stroke-linecap="round" stroke-linejoin="round" fill-opacity="0" stroke="rgb(0,0,0)" stroke-opacity="1" stroke-width="8" d=" M-120.5719985961914,-167.91600036621094 C-120.5719985961914,-167.91600036621094 -292.239013671875,-150.91600036621094 -292.239013671875,-150.91600036621094"></path></g><g opacity="1" transform="matrix(1,0,0,1,0,0)"><path fill="rgb(255,255,255)" fill-opacity="1" d=" M-145.57200622558594,-12.434000015258789 C-145.57200622558594,-12.434000015258789 -348.5719909667969,-10.434000015258789 -348.5719909667969,-10.434000015258789"></path><path stroke-linecap="round" stroke-linejoin="round" fill-opacity="0" stroke="rgb(0,0,0)" stroke-opacity="1" stroke-width="8" d=" M-145.57200622558594,-12.434000015258789 C-145.57200622558594,-12.434000015258789 -348.5719909667969,-10.434000015258789 -348.5719909667969,-10.434000015258789"></path></g><g opacity="1" transform="matrix(1,0,0,1,0,0)"><path fill="rgb(255,255,255)" fill-opacity="1" d=" M-143.57200622558594,60.70399856567383 C-143.57200622558594,60.70399856567383 -348.5719909667969,46.70399856567383 -348.5719909667969,46.70399856567383"></path><path stroke-linecap="round" stroke-linejoin="round" fill-opacity="0" stroke="rgb(0,0,0)" stroke-opacity="1" stroke-width="8" d=" M-143.57200622558594,60.70399856567383 C-143.57200622558594,60.70399856567383 -348.5719909667969,46.70399856567383 -348.5719909667969,46.70399856567383"></path></g></g><g opacity="1" transform="matrix(1,0,0,1,0,0)"><path stroke-linecap="round" stroke-linejoin="round" fill-opacity="0" stroke="rgb(0,0,0)" stroke-opacity="1" stroke-width="8" d=" M-392.1730041503906,100.51699829101562 C-392.1730041503906,100.51699829101562 9.232000350952148,160.44700622558594 9.232000350952148,160.44700622558594 C18.04199981689453,161.76199340820312 25.961999893188477,154.93800354003906 25.961999893188477,146.02999877929688 C25.961999893188477,146.02999877929688 25.961999893188477,-312.2080078125 25.961999893188477,-312.2080078125 C25.961999893188477,-321.1159973144531 18.04199981689453,-327.94000244140625 9.232000350952148,-326.625 C9.232000350952148,-326.625 -392.1730041503906,-266.69500732421875 -392.1730041503906,-266.69500732421875 C-399.31298828125,-265.6289978027344 -404.5979919433594,-259.49798583984375 -404.5979919433594,-252.2779998779297 C-404.5979919433594,-252.2779998779297 -404.5979919433594,86.0999984741211 -404.5979919433594,86.0999984741211 C-404.5979919433594,93.31999969482422 -399.31298828125,99.45099639892578 -392.1730041503906,100.51699829101562z"></path></g><g opacity="1" transform="matrix(1,0,0,1,0,-0.00046726607251912355)"><path stroke-linecap="round" stroke-linejoin="round" fill-opacity="0" stroke="rgb(0,0,0)" stroke-opacity="1" stroke-width="8" d=" M20.790000915527344,-90.57499694824219 C20.790000915527344,-90.57499694824219 -404.5979919433594,-70.45099639892578 -404.5979919433594,-70.45099639892578"></path></g></g></g></svg>