<svg xmlns="http://www.w3.org/2000/svg" xmlns:xlink="http://www.w3.org/1999/xlink" viewBox="0 0 750 476" width="750" height="476" preserveAspectRatio="xMidYMid meet" style="width: 100%; height: 100%; transform: translate3d(0px, 0px, 0px); content-visibility: visible;"><defs><clipPath id="__lottie_element_925"><rect width="750" height="476" x="0" y="0"></rect></clipPath><g id="__lottie_element_955"><g style="display: none;"><path></path><g><path></path></g></g></g><mask id="__lottie_element_955_1" mask-type="alpha"><use xlink:href="#__lottie_element_955"></use></mask><g id="__lottie_element_961"><g style="display: none;"><path></path><g><path></path></g></g></g><mask id="__lottie_element_961_1" mask-type="alpha"><use xlink:href="#__lottie_element_961"></use></mask></defs><g clip-path="url(#__lottie_element_925)"><g transform="matrix(1,0,0,1,374.9320068359375,238.2050018310547)" opacity="1" style="display: block;"><g opacity="1" transform="matrix(1,0,0,1,0.06800000369548798,-0.20499999821186066)"><path fill="rgb(255,255,255)" fill-opacity="1" d=" M375,-228 C375,-228 375,228 375,228 C375,233.5189971923828 370.5190124511719,238 365,238 C365,238 -365,238 -365,238 C-370.5190124511719,238 -375,233.5189971923828 -375,228 C-375,228 -375,-228 -375,-228 C-375,-233.5189971923828 -370.5190124511719,-238 -365,-238 C-365,-238 365,-238 365,-238 C370.5190124511719,-238 375,-233.5189971923828 375,-228z"></path></g></g><g style="display: block;" transform="matrix(-0.5,0.8660253882408142,-0.8660253882408142,-0.5,375,248)" opacity="1"><g opacity="1" transform="matrix(1,0,0,1,0,0)"><path stroke-linecap="butt" stroke-linejoin="miter" fill-opacity="0" stroke-miterlimit="4" stroke="rgb(255,196,177)" stroke-opacity="1" stroke-width="1" d=" M-199.76199340820312,-64.9010009765625 C-172.39500427246094,-149.0800018310547 -93.25299835205078,-210 0,-210 C0,-210 0,-210 0,-210 C93.25299835205078,-210 172.39500427246094,-149.0800018310547 199.76199340820312,-64.9010009765625"></path></g></g><g style="display: block;" transform="matrix(-0.5,0.8660253882408142,-0.8660253882408142,-0.5,375,248)" opacity="1"><g opacity="1" transform="matrix(1,0,0,1,0,0)"><path stroke-linecap="butt" stroke-linejoin="miter" fill-opacity="0" stroke-miterlimit="4" stroke="rgb(255,196,177)" stroke-opacity="1" stroke-width="1" d=" M156.0019989013672,-140.52099609375 C189.56100463867188,-103.29499816894531 210,-54.01499938964844 210,0 C210,115.89900207519531 115.89900207519531,210 0,210 C-14.956000328063965,210 -29.548999786376953,208.43299865722656 -43.624000549316406,205.45399475097656"></path></g></g><g style="display: block;" transform="matrix(-0.5,0.8660253882408142,-0.8660253882408142,-0.5,375,248)" opacity="1"><g opacity="1" transform="matrix(1,0,0,1,0,0)"><path stroke-linecap="butt" stroke-linejoin="miter" fill-opacity="0" stroke-miterlimit="4" stroke="rgb(255,196,177)" stroke-opacity="1" stroke-width="1" d=" M43.624000549316406,205.45399475097656 C29.548999786376953,208.43299865722656 14.956000328063965,210 0,210 C-115.89900207519531,210 -210,115.89900207519531 -210,0 C-210,-54.01499938964844 -189.56100463867188,-103.29499816894531 -156.0019989013672,-140.52099609375"></path></g></g><g style="display: block;" transform="matrix(0.5,-0.8660253882408142,0.8660253882408142,0.5,375,248)" opacity="1"><g opacity="1" transform="matrix(1,0,0,1,0,0)"><path stroke-linecap="butt" stroke-linejoin="miter" fill-opacity="0" stroke-miterlimit="4" stroke="rgb(255,196,177)" stroke-opacity="1" stroke-width="1" d=" M-199.76199340820312,-64.9010009765625 C-172.39500427246094,-149.0800018310547 -93.25299835205078,-210 0,-210 C0,-210 0,-210 0,-210 C93.25299835205078,-210 172.39500427246094,-149.0800018310547 199.76199340820312,-64.9010009765625"></path></g></g><g style="display: block;" transform="matrix(0.5,-0.8660253882408142,0.8660253882408142,0.5,375,248)" opacity="1"><g opacity="1" transform="matrix(1,0,0,1,0,0)"><path stroke-linecap="butt" stroke-linejoin="miter" fill-opacity="0" stroke-miterlimit="4" stroke="rgb(255,196,177)" stroke-opacity="1" stroke-width="1" d=" M156.0019989013672,-140.52099609375 C189.56100463867188,-103.29499816894531 210,-54.01499938964844 210,0 C210,115.89900207519531 115.89900207519531,210 0,210 C-14.956000328063965,210 -29.548999786376953,208.43299865722656 -43.624000549316406,205.45399475097656"></path></g></g><g style="display: block;" transform="matrix(0.5,-0.8660253882408142,0.8660253882408142,0.5,375,248)" opacity="1"><g opacity="1" transform="matrix(1,0,0,1,0,0)"><path stroke-linecap="butt" stroke-linejoin="miter" fill-opacity="0" stroke-miterlimit="4" stroke="rgb(255,197,178)" stroke-opacity="1" stroke-width="1" d=" M43.624000549316406,205.45399475097656 C29.548999786376953,208.43299865722656 14.956000328063965,210 0,210 C-115.89900207519531,210 -210,115.89900207519531 -210,0 C-210,-54.01499938964844 -189.56100463867188,-103.29499816894531 -156.0019989013672,-140.52099609375"></path></g></g><g style="display: block;" transform="matrix(2,0,0,2,373.95599365234375,254.15599060058594)" opacity="1"><g opacity="1" transform="matrix(1.4506700038909912,0,0,1.4506700038909912,0,0)"><path fill="rgb(255,94,69)" fill-opacity="1" d=" M0,-35 C0,-35 30.5,-25.950000762939453 30.5,-25.950000762939453 C30.5,-24.270000457763672 29.65999984741211,-15.819999694824219 27.989999771118164,-0.5699999928474426 C26.31999969482422,14.670000076293945 16.989999771118164,26.530000686645508 0,35 C-16.989999771118164,26.530000686645508 -26.31999969482422,14.670000076293945 -27.989999771118164,-0.5699999928474426 C-29.65999984741211,-15.819999694824219 -30.5,-24.270000457763672 -30.5,-25.950000762939453 C-30.5,-25.950000762939453 0,-35 0,-35 C0,-35 0,-35 0,-35z"></path><path stroke-linecap="butt" stroke-linejoin="miter" fill-opacity="0" stroke-miterlimit="4" stroke="rgb(255,196,177)" stroke-opacity="1" stroke-width="1" d=" M0,-35 C0,-35 30.5,-25.950000762939453 30.5,-25.950000762939453 C30.5,-24.270000457763672 29.65999984741211,-15.819999694824219 27.989999771118164,-0.5699999928474426 C26.31999969482422,14.670000076293945 16.989999771118164,26.530000686645508 0,35 C-16.989999771118164,26.530000686645508 -26.31999969482422,14.670000076293945 -27.989999771118164,-0.5699999928474426 C-29.65999984741211,-15.819999694824219 -30.5,-24.270000457763672 -30.5,-25.950000762939453 C-30.5,-25.950000762939453 0,-35 0,-35 C0,-35 0,-35 0,-35z"></path></g></g><g style="display: block;" transform="matrix(2,0,0,2,411.67401123046875,254.15599060058594)" opacity="0.5"><g opacity="1" transform="matrix(1.4506700038909912,0,0,1.4506700038909912,0,0)"><path fill="rgb(74,87,111)" fill-opacity="1" d=" M-12.5,-29 C-12.5,-29 12.5,-21.610000610351562 12.5,-21.610000610351562 C12.5,-19.65999984741211 11.8100004196167,-12.470000267028809 10.4399995803833,-0.029999999329447746 C9.0600004196167,12.40999984741211 1.4199999570846558,22.09000015258789 -12.5,29 C-12.5,29 -12.5,-29 -12.5,-29z"></path></g></g><g style="display: block;" transform="matrix(2,0,0,2,375.4079895019531,254.15599060058594)" opacity="0.4"><g opacity="1" transform="matrix(1.4506700038909912,0,0,1.4506700038909912,0,0)"><path fill="rgb(69,82,102)" fill-opacity="1" d=" M0,-29 C0,-29 25,-21.610000610351562 25,-21.610000610351562 C25,-19.65999984741211 24.309999465942383,-12.470000267028809 22.940000534057617,-0.029999999329447746 C21.559999465942383,12.40999984741211 13.920000076293945,22.09000015258789 0,29 C-13.920000076293945,22.09000015258789 -21.559999465942383,12.40999984741211 -22.940000534057617,-0.029999999329447746 C-24.309999465942383,-12.470000267028809 -25,-19.65999984741211 -25,-21.610000610351562 C-25,-21.610000610351562 0,-29 0,-29 C0,-29 0,-29 0,-29z"></path><path stroke-linecap="butt" stroke-linejoin="miter" fill-opacity="0" stroke-miterlimit="4" stroke="rgb(255,196,177)" stroke-opacity="1" stroke-width="0.5" d=" M0,-29 C0,-29 25,-21.610000610351562 25,-21.610000610351562 C25,-19.65999984741211 24.309999465942383,-12.470000267028809 22.940000534057617,-0.029999999329447746 C21.559999465942383,12.40999984741211 13.920000076293945,22.09000015258789 0,29 C-13.920000076293945,22.09000015258789 -21.559999465942383,12.40999984741211 -22.940000534057617,-0.029999999329447746 C-24.309999465942383,-12.470000267028809 -25,-19.65999984741211 -25,-21.610000610351562 C-25,-21.610000610351562 0,-29 0,-29 C0,-29 0,-29 0,-29z"></path></g></g><g style="display: block;" transform="matrix(0.8838834762573242,-0.8838834762573242,0.8838834762573242,0.8838834762573242,373.5,239.5)" opacity="1"><g opacity="1" transform="matrix(1,0,0,1,0,0)"><path stroke-linecap="butt" stroke-linejoin="miter" fill-opacity="0" stroke-miterlimit="4" stroke="rgb(255,255,255)" stroke-opacity="1" stroke-width="8" d=" M-13,-11 C-13,-11 -13,11 -13,11 C-13,11 29,11 29,11"></path></g></g><g style="display: none;"><g><path></path><path stroke-linecap="butt" stroke-linejoin="miter" fill-opacity="0" stroke-miterlimit="4"></path></g></g><g mask="url(#__lottie_element_961_1)" style="display: none;"><g><g><path></path></g></g></g><g mask="url(#__lottie_element_955_1)" style="display: none;"><g><g><path></path></g></g></g><g style="display: none;"><g><path stroke-linecap="round" stroke-linejoin="round" fill-opacity="0"></path><path></path></g></g><g style="display: none;"><g><path stroke-linecap="butt" stroke-linejoin="round" fill-opacity="0"></path></g></g><g style="display: none;"><g><path stroke-linecap="round" stroke-linejoin="round" fill-opacity="0"></path></g></g><g style="display: none;"><g><path stroke-linecap="round" stroke-linejoin="round" fill-opacity="0"></path></g></g><g style="display: none;"><g><path></path><path stroke-linecap="butt" stroke-linejoin="miter" fill-opacity="0" stroke-miterlimit="4"></path></g></g><g style="display: none;"><g><path></path></g></g><g style="display: none;"><g><path></path><path stroke-linecap="butt" stroke-linejoin="miter" fill-opacity="0" stroke-miterlimit="4"></path></g></g><g style="display: none;"><g><path></path></g></g><g style="display: none;"><g><path></path></g><g><path></path></g><g><path></path></g><g><path></path></g><g><path></path></g><g><path></path></g><g><path></path></g><g><path></path></g><g><path></path></g></g></g></svg>