<svg xmlns="http://www.w3.org/2000/svg" xmlns:xlink="http://www.w3.org/1999/xlink" viewBox="0 0 1670 1864" width="1670" height="1864" preserveAspectRatio="xMidYMid meet" style="width: 100%; height: 100%; transform: translate3d(0px, 0px, 0px); content-visibility: visible;"><defs><clipPath id="__lottie_element_2"><rect width="1670" height="1864" x="0" y="0"></rect></clipPath></defs><g clip-path="url(#__lottie_element_2)"><g style="display: none;"><rect width="1670" height="1864" fill="#ffc20d"></rect></g><g transform="matrix(-1.1492303609848022,-0.40947476029396057,0.40947476029396057,-1.1492303609848022,1285.36962890625,766.109619140625)" opacity="1" style="display: block;"><g opacity="1" transform="matrix(1,0,0,1,322.031005859375,155.63999938964844)"><path stroke-linecap="butt" stroke-linejoin="miter" fill-opacity="0" stroke-miterlimit="10" stroke="rgb(0,0,0)" stroke-opacity="1" stroke-width="10" d=" M0,-51.54899978637695 C0,-51.54899978637695 -59.52399826049805,51.54899978637695 -59.52399826049805,51.54899978637695 C-59.52399826049805,51.54899978637695 59.52399826049805,51.54899978637695 59.52399826049805,51.54899978637695 C59.52399826049805,51.54899978637695 0,-51.54899978637695 0,-51.54899978637695z"></path></g></g><g transform="matrix(0.9451318979263306,-0.7714439034461975,0.7714439034461975,0.9451318979263306,896.1831665039062,556.7084350585938)" opacity="1" style="display: block;"><g opacity="1" transform="matrix(1,0,0,1,322.031005859375,155.63999938964844)"><path stroke-linecap="butt" stroke-linejoin="miter" fill-opacity="0" stroke-miterlimit="10" stroke="rgb(0,0,0)" stroke-opacity="1" stroke-width="10" d=" M0,-51.54899978637695 C0,-51.54899978637695 -59.52399826049805,51.54899978637695 -59.52399826049805,51.54899978637695 C-59.52399826049805,51.54899978637695 59.52399826049805,51.54899978637695 59.52399826049805,51.54899978637695 C59.52399826049805,51.54899978637695 0,-51.54899978637695 0,-51.54899978637695z"></path></g></g><g transform="matrix(-1.2489187717437744,-0.4449940621852875,0.4449940621852875,-1.2489187717437744,705.6041259765625,949.2234497070312)" opacity="1" style="display: block;"><g opacity="1" transform="matrix(1,0,0,1,322.031005859375,155.63999938964844)"><path stroke-linecap="butt" stroke-linejoin="miter" fill-opacity="0" stroke-miterlimit="10" stroke="rgb(250,188,0)" stroke-opacity="1" stroke-width="21" d=" M0,-51.54899978637695 C0,-51.54899978637695 -59.52399826049805,51.54899978637695 -59.52399826049805,51.54899978637695 C-59.52399826049805,51.54899978637695 59.52399826049805,51.54899978637695 59.52399826049805,51.54899978637695 C59.52399826049805,51.54899978637695 0,-51.54899978637695 0,-51.54899978637695z"></path></g></g><g transform="matrix(-0.6395121812820435,-1.6143049001693726,1.6143049001693726,-0.6395121812820435,1315.882568359375,3182.476318359375)" opacity="1" style="display: block;"><g opacity="1" transform="matrix(1,0,0,1,1059.4090576171875,155.63999938964844)"><path fill="rgb(14,14,14)" fill-opacity="1" d=" M0,-51.54899978637695 C0,-51.54899978637695 -59.52399826049805,51.54899978637695 -59.52399826049805,51.54899978637695 C-59.52399826049805,51.54899978637695 59.52299880981445,51.54899978637695 59.52299880981445,51.54899978637695 C59.52299880981445,51.54899978637695 0,-51.54899978637695 0,-51.54899978637695z"></path><path stroke-linecap="butt" stroke-linejoin="miter" fill-opacity="0" stroke-miterlimit="10" stroke="rgb(0,0,0)" stroke-opacity="1" stroke-width="10" d=" M0,-51.54899978637695 C0,-51.54899978637695 -59.52399826049805,51.54899978637695 -59.52399826049805,51.54899978637695 C-59.52399826049805,51.54899978637695 59.52299880981445,51.54899978637695 59.52299880981445,51.54899978637695 C59.52299880981445,51.54899978637695 0,-51.54899978637695 0,-51.54899978637695z"></path></g></g><g transform="matrix(-0.42637118697166443,-1.0762782096862793,1.0762782096862793,-0.42637118697166443,1508.0975341796875,2246.252685546875)" opacity="1" style="display: block;"><g opacity="1" transform="matrix(1,0,0,1,1059.4090576171875,155.63999938964844)"><path fill="rgb(7,7,7)" fill-opacity="1" d=" M0,-51.54899978637695 C0,-51.54899978637695 -59.52399826049805,51.54899978637695 -59.52399826049805,51.54899978637695 C-59.52399826049805,51.54899978637695 59.52299880981445,51.54899978637695 59.52299880981445,51.54899978637695 C59.52299880981445,51.54899978637695 0,-51.54899978637695 0,-51.54899978637695z"></path><path stroke-linecap="butt" stroke-linejoin="miter" fill-opacity="0" stroke-miterlimit="10" stroke="rgb(0,0,0)" stroke-opacity="1" stroke-width="10" d=" M0,-51.54899978637695 C0,-51.54899978637695 -59.52399826049805,51.54899978637695 -59.52399826049805,51.54899978637695 C-59.52399826049805,51.54899978637695 59.52299880981445,51.54899978637695 59.52299880981445,51.54899978637695 C59.52299880981445,51.54899978637695 0,-51.54899978637695 0,-51.54899978637695z"></path></g></g><g transform="matrix(1.2200000286102295,0,0,1.2200000286102295,835,1009)" opacity="1" style="display: block;"><g opacity="1" transform="matrix(1,0,0,1,0,0)"><path stroke-linecap="round" stroke-linejoin="round" fill-opacity="0" stroke="rgb(0,0,0)" stroke-opacity="1" stroke-width="22" d=" M-114,-130 C-114,-130 -69,-39 -13,-13"></path></g></g><g style="display: block;" transform="matrix(0.042577385902404785,1.21925687789917,-1.21925687789917,0.042577385902404785,673.0568237304688,1002.2371215820312)" opacity="1"><g opacity="1" transform="matrix(1,0,0,1,0,0)"><path stroke-linecap="round" stroke-linejoin="round" fill-opacity="0" stroke="rgb(0,0,0)" stroke-opacity="1" stroke-width="22" d=" M-114,-130 C-114,-130 -69,-39 -13,-13"></path></g></g><g style="display: block;" transform="matrix(0.042577385902404785,1.21925687789917,-1.21925687789917,0.042577385902404785,1155.065673828125,56.114601135253906)" opacity="1"><g opacity="1" transform="matrix(1,0,0,1,707.4959716796875,291.94000244140625)"><path stroke-linecap="butt" stroke-linejoin="miter" fill-opacity="0" stroke-miterlimit="4" stroke="rgb(255,194,14)" stroke-opacity="1" stroke-width="41" d=" M674.072998046875,105.36799621582031 C661.2020263671875,105.3550033569336 648.3109741210938,104.29199981689453 635.666015625,101.90699768066406 C596.3200073242188,94.48699951171875 560.5780029296875,73.93699645996094 542.1019897460938,37.244998931884766 C529.1129760742188,11.447999954223633 525.9949951171875,-18.235000610351562 527.072021484375,-46.74100112915039 C528.14501953125,-75.10900115966797 526.27197265625,-103.44100189208984 518.9639892578125,-130.9709930419922 C507.16400146484375,-175.427001953125 481.6180114746094,-215.89500427246094 443.885009765625,-242.69500732421875 C411.62701416015625,-265.6080017089844 371.0190124511719,-277.2330017089844 331.5329895019531,-272.7070007324219 C290.7950134277344,-268.0369873046875 254.17100524902344,-246.88900756835938 229.07000732421875,-214.54100036621094 C214.20399475097656,-195.38299560546875 203.6269989013672,-173.2530059814453 196.677001953125,-150.07200622558594 C187.63099670410156,-119.9000015258789 185.81399536132812,-89.12200164794922 184.9239959716797,-57.84000015258789 C182.94200134277344,11.961999893188477 174.55099487304688,83.77999877929688 147.75999450683594,148.843994140625 C132.22900390625,186.56100463867188 109.15899658203125,222.88400268554688 76.12000274658203,247.59500122070312 C55.04499816894531,263.3559875488281 30.655000686645508,274.0660095214844 4.500999927520752,277.614990234375 C5.515999794006348,277.4779968261719 2.7249999046325684,277.822998046875 2.072999954223633,277.8940124511719 C0.8759999871253967,278.02301025390625 -0.3230000138282776,278.1369934082031 -1.5230000019073486,278.2340087890625 C-3.75,278.41400146484375 -5.980999946594238,278.5409851074219 -8.21399974822998,278.60400390625 C-12.920999526977539,278.7340087890625 -17.636999130249023,278.59100341796875 -22.33300018310547,278.25799560546875 C-34.50899887084961,277.3970031738281 -46.500999450683594,275.10400390625 -58.749000549316406,271.3080139160156 C-93.06999969482422,260.6719970703125 -122.66799926757812,238.3769989013672 -143.68800354003906,209.3560028076172 C-179.18800354003906,160.34300231933594 -191.94200134277344,98.00399780273438 -195.94400024414062,38.7140007019043 C-198.50399780273438,0.777999997138977 -196.7779998779297,-37.106998443603516 -201.79299926757812,-74.90599822998047 C-205.68299865722656,-104.21299743652344 -212.24000549316406,-133.2519989013672 -222.93699645996094,-160.86099243164062 C-239.1230010986328,-202.63600158691406 -265.02801513671875,-242.6199951171875 -303.85400390625,-266.5199890136719 C-334.6180114746094,-285.4570007324219 -372.07000732421875,-291.69000244140625 -406.9219970703125,-281.36700439453125 C-445.8380126953125,-269.8389892578125 -476.552001953125,-240.4219970703125 -497.0989990234375,-206.2310028076172 C-526.2160034179688,-157.7790069580078 -537.1320190429688,-99.91600036621094 -539.0579833984375,-44.06999969482422 C-540.156982421875,-12.182999610900879 -540.9039916992188,19.826000213623047 -554.083984375,49.53099822998047 C-562.4669799804688,68.42500305175781 -575.4979858398438,85.0260009765625 -593.3770141601562,95.70099639892578 C-619.3770141601562,111.2249984741211 -652.3759765625,112.97699737548828 -680.6530151367188,107.9739990234375 C-682.5380249023438,107.63999938964844 -684.4299926757812,107.28900146484375 -686.3159790039062,106.9010009765625"></path></g></g><g transform="matrix(1,0,0,1,835,932)" opacity="1" style="display: block;"><g opacity="1" transform="matrix(1,0,0,1,-343.5,26)"><path fill="rgb(7,7,7)" fill-opacity="1" d=" M0,-44 C25.663349151611328,-44 46.5,-24.283599853515625 46.5,0 C46.5,24.283599853515625 25.663349151611328,44 0,44 C-25.663349151611328,44 -46.5,24.283599853515625 -46.5,0 C-46.5,-24.283599853515625 -25.663349151611328,-44 0,-44z"></path><path stroke-linecap="butt" stroke-linejoin="miter" fill-opacity="0" stroke-miterlimit="4" stroke="rgb(0,0,0)" stroke-opacity="1" stroke-width="41" d=" M0,-44 C25.663349151611328,-44 46.5,-24.283599853515625 46.5,0 C46.5,24.283599853515625 25.663349151611328,44 0,44 C-25.663349151611328,44 -46.5,24.283599853515625 -46.5,0 C-46.5,-24.283599853515625 -25.663349151611328,-44 0,-44z"></path></g></g><g transform="matrix(1,0,0,1,1023,88)" opacity="1" style="display: block;"><g opacity="1" transform="matrix(1,0,0,1,-343.5,26)"><path fill="rgb(7,7,7)" fill-opacity="1" d=" M0,-44 C25.663349151611328,-44 46.5,-24.283599853515625 46.5,0 C46.5,24.283599853515625 25.663349151611328,44 0,44 C-25.663349151611328,44 -46.5,24.283599853515625 -46.5,0 C-46.5,-24.283599853515625 -25.663349151611328,-44 0,-44z"></path><path stroke-linecap="butt" stroke-linejoin="miter" fill-opacity="0" stroke-miterlimit="4" stroke="rgb(0,0,0)" stroke-opacity="1" stroke-width="41" d=" M0,-44 C25.663349151611328,-44 46.5,-24.283599853515625 46.5,0 C46.5,24.283599853515625 25.663349151611328,44 0,44 C-25.663349151611328,44 -46.5,24.283599853515625 -46.5,0 C-46.5,-24.283599853515625 -25.663349151611328,-44 0,-44z"></path></g></g><g transform="matrix(1,0,0,1,1079,1748)" opacity="1" style="display: block;"><g opacity="1" transform="matrix(1,0,0,1,-343.5,26)"><path fill="rgb(0,0,0)" fill-opacity="1" d=" M0,-44 C25.663349151611328,-44 46.5,-24.283599853515625 46.5,0 C46.5,24.283599853515625 25.663349151611328,44 0,44 C-25.663349151611328,44 -46.5,24.283599853515625 -46.5,0 C-46.5,-24.283599853515625 -25.663349151611328,-44 0,-44z"></path><path stroke-linecap="butt" stroke-linejoin="miter" fill-opacity="0" stroke-miterlimit="4" stroke="rgb(0,0,0)" stroke-opacity="1" stroke-width="41" d=" M0,-44 C25.663349151611328,-44 46.5,-24.283599853515625 46.5,0 C46.5,24.283599853515625 25.663349151611328,44 0,44 C-25.663349151611328,44 -46.5,24.283599853515625 -46.5,0 C-46.5,-24.283599853515625 -25.663349151611328,-44 0,-44z"></path></g></g></g></svg>