<svg xmlns="http://www.w3.org/2000/svg" xmlns:xlink="http://www.w3.org/1999/xlink" viewBox="0 0 1200 1200" width="1200" height="1200" preserveAspectRatio="xMidYMid meet" style="width: 100%; height: 100%; transform: translate3d(0px, 0px, 0px); content-visibility: visible;"><defs><clipPath id="__lottie_element_1005"><rect width="1200" height="1200" x="0" y="0"></rect></clipPath><clipPath id="__lottie_element_1010"><path d="M0,0 L1000,0 L1000,1000 L0,1000z"></path></clipPath><clipPath id="__lottie_element_1023"><path d="M0,0 L1000,0 L1000,1000 L0,1000z"></path></clipPath><clipPath id="__lottie_element_1036"><path d="M0,0 L1000,0 L1000,1000 L0,1000z"></path></clipPath></defs><g clip-path="url(#__lottie_element_1005)"><g style="display: block;" transform="matrix(1.0001699924468994,0,0,1.0001699924468994,99.91500854492188,99.76373291015625)" opacity="1"><g opacity="1" transform="matrix(1,0,0,1,500.010986328125,540.0250244140625)"><path fill="rgb(126,105,226)" fill-opacity="1" d=" M269.5270080566406,-39.11399841308594 C269.5270080566406,65.76399993896484 209.61599731445312,156.66000366210938 122.1449966430664,201.2010040283203 C111.7249984741211,206.5050048828125 100.91500091552734,211.15199279785156 89.77300262451172,215.08999633789062 C88.97100067138672,215.3719940185547 88.18299865722656,215.66000366210938 87.38800048828125,215.96400451660156 C64.20700073242188,224.75100708007812 44.595001220703125,241.01600646972656 32.17399978637695,262.52801513671875 C32.17399978637695,262.52801513671875 10.48900032043457,300.10400390625 10.48900032043457,300.10400390625 C10.48900032043457,300.10400390625 8.336000442504883,303.8320007324219 8.336000442504883,303.8320007324219 C4.629000186920166,310.2489929199219 -4.635000228881836,310.2489929199219 -8.335000038146973,303.8320007324219 C-8.335000038146973,303.8320007324219 -31.856000900268555,263.0920104980469 -31.856000900268555,263.0920104980469 C-44.790000915527344,240.6909942626953 -65.34100341796875,223.7169952392578 -89.73600006103516,215.10400390625 C-194.31100463867188,178.19400024414062 -269.2950134277344,78.58999633789062 -269.5260009765625,-38.564998626708984 C-269.75,-149.50599670410156 -202.38999938964844,-245.23599243164062 -106.41400146484375,-286.6990051269531 C-73.74500274658203,-300.8190002441406 -37.76599884033203,-308.6449890136719 -0.003000000026077032,-308.6449890136719 C148.85299682617188,-308.6449890136719 269.5270080566406,-187.97000122070312 269.5270080566406,-39.11399841308594z"></path></g></g><g style="display: block;" transform="matrix(1.0001699924468994,0,0,1.0001699924468994,99.91500854492188,99.89275360107422)" opacity="1"><g opacity="1" transform="matrix(1,0,0,1,867.7940063476562,492.85400390625)"><path fill="rgb(0,0,0)" fill-opacity="1" d=" M55.11600112915039,-7.242000102996826 C60.150001525878906,-48.33300018310547 52.03900146484375,-102.40699768066406 16.891000747680664,-102.40699768066406 C-4.738999843597412,-102.40699768066406 6.077000141143799,-53.74100112915039 0.6690000295639038,-24 C0.6690000295639038,-51.0369987487793 8.779999732971191,-78.072998046875 -7.441999912261963,-99.7030029296875 C-20.961000442504883,-121.33300018310547 -58.8129997253418,-99.7030029296875 -56.77199935913086,-73.81700134277344 C-56.77199935913086,-73.81700134277344 -57.8489990234375,75.02100372314453 -57.8489990234375,75.02100372314453 C-57.92900085449219,93.55599975585938 -43.42300033569336,107.12699890136719 -24.68600082397461,108.51100158691406 C-22.933000564575195,108.64099884033203 -21.167999267578125,108.50800323486328 -19.45800018310547,108.11199951171875 C-12.656999588012695,106.53800201416016 -7.578000068664551,101.0469970703125 -6.7129998207092285,94.33100128173828 C-6.7129998207092285,94.33100128173828 -6.184000015258789,90.21700286865234 -6.184000015258789,90.21700286865234 C-2.197000026702881,59.25 0.1080000028014183,28.124000549316406 0.7979999780654907,-3.0339999198913574 C0.7979999780654907,-3.0339999198913574 10.593999862670898,-3.7929999828338623 10.593999862670898,-3.7929999828338623 C10.593999862670898,-3.7929999828338623 9.758000373840332,4.98199987411499 9.758000373840332,4.98199987411499 C9.758000373840332,4.98199987411499 2.562999963760376,82.80500030517578 2.562999963760376,82.80500030517578 C2.562999963760376,82.80500030517578 8.425999641418457,100.5510025024414 8.425999641418457,100.5510025024414 C9.588000297546387,104.06900024414062 14.260000228881836,105.03600311279297 16.808000564575195,102.28600311279297 C16.808000564575195,102.28600311279297 17.172000885009766,102.06199645996094 17.172000885009766,102.06199645996094 C17.172000885009766,102.06199645996094 18.35700035095215,101.33200073242188 18.35700035095215,101.33200073242188 C31.208999633789062,93.42400360107422 42.125,82.99299621582031 50.433998107910156,70.77300262451172 C51.819000244140625,68.73699951171875 53.13100051879883,66.6510009765625 54.36800003051758,64.51799774169922 C55.60499954223633,62.38600158691406 56.766998291015625,60.20600128173828 57.849998474121094,57.98500061035156 C57.849998474121094,57.98500061035156 55.11600112915039,-7.242000102996826 55.11600112915039,-7.242000102996826z"></path></g><g opacity="1" transform="matrix(1,0,0,1,868.9739990234375,491.52099609375)"><path fill="rgb(126,105,226)" fill-opacity="1" d=" M-13.581999778747559,-93.68000030517578 C-7.834000110626221,-45.12099838256836 -6.165999889373779,3.134000062942505 -8.784000396728516,51.5880012512207 C-9.529000282287598,65.375 -10.675999641418457,79.13200378417969 -12.154999732971191,92.85399627685547 C-12.659000396728516,97.52899932861328 -8.618000030517578,102.60199737548828 -2.7869999408721924,103.12899780273438 C2.86299991607666,103.63899993896484 8.454999923706055,100.58599853515625 8.994999885559082,95.572998046875 C14.769000053405762,32.28900146484375 15.779000282287598,-29.240999221801758 8.71399974822998,-92.84600067138672 C8.520000457763672,-94.59500122070312 7.769000053405762,-96.27799987792969 6.571000099182129,-97.71800231933594 C6.169000148773193,-98.20099639892578 5.749000072479248,-98.71099853515625 5.296000003814697,-99.22599792480469 C0.703000009059906,-104.45099639892578 -8.522000312805176,-104.59100341796875 -12.279000282287598,-99.125 C-13.361000061035156,-97.5510025024414 -13.901000022888184,-95.68499755859375 -13.581999778747559,-93.68000030517578 C-13.581999778747559,-93.68000030517578 -13.581999778747559,-93.68000030517578 -13.581999778747559,-93.68000030517578z"></path></g><g opacity="1" transform="matrix(1,0,0,1,712.9400024414062,712.7979736328125)"><path fill="rgb(0,0,0)" fill-opacity="1" d=" M-212.9320068359375,212.89100646972656 C-212.9320068359375,212.89100646972656 -212.9320068359375,191.26100158691406 -212.9320068359375,191.26100158691406 C-104.98200225830078,191.26100158691406 -3.492000102996826,149.22300720214844 72.83999633789062,72.88899993896484 C149.14599609375,-3.4159998893737793 191.21800231933594,-104.90899658203125 191.302001953125,-212.89100646972656 C191.302001953125,-212.89100646972656 212.9320068359375,-212.875 212.9320068359375,-212.875 C212.8419952392578,-99.12000274658203 168.52099609375,7.797999858856201 88.13300323486328,88.18499755859375 C7.716000080108643,168.60299682617188 -99.20500183105469,212.89100646972656 -212.9320068359375,212.89100646972656z"></path></g><g opacity="1" transform="matrix(1,0,0,1,500,285.2860107421875)"><path fill="rgb(126,105,226)" fill-opacity="1" d=" M305.072998046875,-89.31300354003906 C304.8940124511719,-89.49199676513672 304.6889953613281,-89.69599914550781 304.510009765625,-89.8499984741211 C222.95700073242188,-170.968994140625 114.83999633789062,-215.6060028076172 0,-215.6060028076172 C-114.83999633789062,-215.6060028076172 -222.95599365234375,-170.968994140625 -304.510009765625,-89.8499984741211 C-304.6889953613281,-89.69599914550781 -304.8940124511719,-89.49199676513672 -305.072998046875,-89.31300354003906 C-386.83099365234375,-7.734000205993652 -431.7489929199219,100.56099700927734 -431.5710144042969,215.6060028076172 C-431.5710144042969,215.6060028076172 -399.12799072265625,215.55499267578125 -399.12799072265625,215.55499267578125 C-399.3059997558594,109.2030029296875 -357.76300048828125,9.08899974822998 -282.1400146484375,-66.3550033569336 C-281.9360046386719,-66.55899810791016 -281.7569885253906,-66.73799896240234 -281.552001953125,-66.91699981689453 C-206.13400268554688,-141.875 -106.1729965209961,-183.16400146484375 0,-183.16400146484375 C106.1729965209961,-183.16400146484375 206.13400268554688,-141.875 281.552001953125,-66.91699981689453 C281.7569885253906,-66.73799896240234 281.9360046386719,-66.55899810791016 282.1400146484375,-66.3550033569336 C357.76300048828125,9.08899974822998 399.3059997558594,109.2030029296875 399.12799072265625,215.55499267578125 C399.12799072265625,215.55499267578125 431.5710144042969,215.6060028076172 431.5710144042969,215.6060028076172 C431.75,100.56099700927734 386.83099365234375,-7.734000205993652 305.072998046875,-89.31300354003906z"></path></g><g opacity="1" transform="matrix(1,0,0,1,132.20599365234375,492.85400390625)"><path fill="rgb(0,0,0)" fill-opacity="1" d=" M-55.11600112915039,-7.242000102996826 C-60.150001525878906,-48.33300018310547 -52.03900146484375,-102.40699768066406 -16.891000747680664,-102.40699768066406 C4.738999843597412,-102.40699768066406 -6.077000141143799,-53.74100112915039 -0.6690000295639038,-24 C-0.6690000295639038,-51.0369987487793 -8.779999732971191,-78.072998046875 7.441999912261963,-99.7030029296875 C20.959999084472656,-121.33300018310547 58.8129997253418,-99.7030029296875 56.77199935913086,-73.81700134277344 C56.77199935913086,-73.81700134277344 57.8489990234375,75.02100372314453 57.8489990234375,75.02100372314453 C57.92900085449219,93.55599975585938 43.42300033569336,107.12699890136719 24.68600082397461,108.51100158691406 C22.933000564575195,108.64099884033203 21.167999267578125,108.50800323486328 19.45800018310547,108.11199951171875 C12.656999588012695,106.53800201416016 7.578000068664551,101.0469970703125 6.7129998207092285,94.33100128173828 C6.7129998207092285,94.33100128173828 6.184000015258789,90.21700286865234 6.184000015258789,90.21700286865234 C2.197000026702881,59.25 -0.1080000028014183,28.124000549316406 -0.7979999780654907,-3.0339999198913574 C-0.7979999780654907,-3.0339999198913574 -10.593999862670898,-3.7929999828338623 -10.593999862670898,-3.7929999828338623 C-10.593999862670898,-3.7929999828338623 -9.758000373840332,4.98199987411499 -9.758000373840332,4.98199987411499 C-9.758000373840332,4.98199987411499 -2.562999963760376,82.80500030517578 -2.562999963760376,82.80500030517578 C-2.562999963760376,82.80500030517578 -8.425999641418457,100.5510025024414 -8.425999641418457,100.5510025024414 C-9.588000297546387,104.06900024414062 -14.260000228881836,105.03600311279297 -16.808000564575195,102.28600311279297 C-16.808000564575195,102.28600311279297 -17.172000885009766,102.06199645996094 -17.172000885009766,102.06199645996094 C-17.172000885009766,102.06199645996094 -18.35700035095215,101.33200073242188 -18.35700035095215,101.33200073242188 C-31.208999633789062,93.42400360107422 -42.125,82.99299621582031 -50.433998107910156,70.77300262451172 C-51.819000244140625,68.73699951171875 -53.13100051879883,66.6510009765625 -54.36800003051758,64.51799774169922 C-55.60499954223633,62.38600158691406 -56.766998291015625,60.20600128173828 -57.849998474121094,57.98500061035156 C-57.849998474121094,57.98500061035156 -55.11600112915039,-7.242000102996826 -55.11600112915039,-7.242000102996826z"></path></g><g opacity="1" transform="matrix(1,0,0,1,131.0260009765625,491.52099609375)"><path fill="rgb(126,105,226)" fill-opacity="1" d=" M13.581999778747559,-93.68000030517578 C7.834000110626221,-45.12099838256836 6.165999889373779,3.134000062942505 8.784000396728516,51.5880012512207 C9.529000282287598,65.375 10.675999641418457,79.13200378417969 12.154999732971191,92.85399627685547 C12.659000396728516,97.52899932861328 8.619000434875488,102.60199737548828 2.7869999408721924,103.12899780273438 C-2.86299991607666,103.63899993896484 -8.454999923706055,100.58599853515625 -8.994999885559082,95.572998046875 C-14.769000053405762,32.28900146484375 -15.779000282287598,-29.240999221801758 -8.71399974822998,-92.84600067138672 C-8.520000457763672,-94.59500122070312 -7.769000053405762,-96.27799987792969 -6.571000099182129,-97.71800231933594 C-6.169000148773193,-98.20099639892578 -5.749000072479248,-98.71099853515625 -5.296000003814697,-99.22599792480469 C-0.703000009059906,-104.45099639892578 8.522000312805176,-104.59100341796875 12.279000282287598,-99.125 C13.361000061035156,-97.5510025024414 13.901000022888184,-95.68499755859375 13.581999778747559,-93.68000030517578 C13.581999778747559,-93.68000030517578 13.581999778747559,-93.68000030517578 13.581999778747559,-93.68000030517578z"></path></g><g opacity="1" transform="matrix(1,0,0,1,119.42500305175781,409.2300109863281)"><path fill="rgb(0,0,0)" fill-opacity="1" d=" M-60.71099853515625,51.665000915527344 C-52.777000427246094,-29.597999572753906 -33.85200119018555,-118.82099914550781 36.44499969482422,-170.1909942626953 C44.555999755859375,-175.5989990234375 63.481998443603516,-148.56100463867188 60.77799987792969,-143.1540069580078 C6.703999996185303,-64.74600219726562 -14.925000190734863,21.77199935913086 -12.020999908447266,111.81600189208984 C-11.782999992370605,113.85600280761719 -11.53600025177002,115.96800231933594 -11.26099967956543,117.98300170898438 C-11.057999610900879,119.44999694824219 -10.840999603271484,120.927001953125 -10.62399959564209,122.38999938964844 C-10.62399959564209,122.38999938964844 -10.211999893188477,125.2040023803711 -10.211999893188477,125.2040023803711 C-9.913999557495117,127.24600219726562 -9.597999572753906,129.41200256347656 -9.35200023651123,131.35299682617188 C-9.35200023651123,131.35299682617188 -9.192999839782715,132.60400390625 -9.192999839782715,132.60400390625 C-8.961000442504883,134.4510040283203 -8.699000358581543,136.51300048828125 -8.503999710083008,137.968994140625 C-8.503999710083008,137.968994140625 -8.015999794006348,141.6490020751953 -8.015999794006348,141.6490020751953 C-7.570000171661377,145.02099609375 -7.150000095367432,148.2220001220703 -6.605999946594238,151.5749969482422 C-6.605999946594238,151.5749969482422 -6.183000087738037,154.2209930419922 -6.183000087738037,154.2209930419922 C-5.610000133514404,157.85899353027344 -5.066999912261963,161.2969970703125 -4.243000030517578,164.8260040283203 C-4.243000030517578,164.8260040283203 -3.5380001068115234,167.83799743652344 -3.5380001068115234,167.83799743652344 C-3.5380001068115234,167.83799743652344 -6.616000175476074,168.13299560546875 -6.616000175476074,168.13299560546875 C-8.052000045776367,168.27000427246094 -8.541000366210938,168.3280029296875 -9.111000061035156,168.39700317382812 C-9.746999740600586,168.4739990234375 -10.480999946594238,168.56300354003906 -12.64900016784668,168.7779998779297 C-13.852999687194824,168.8979949951172 -15.755000114440918,169.11599731445312 -17.948999404907227,169.3699951171875 C-23.43000030517578,170.00399780273438 -30.253000259399414,170.79299926757812 -33.4739990234375,170.89300537109375 C-33.66400146484375,170.89999389648438 -33.8489990234375,170.90199279785156 -34.03099822998047,170.90199279785156 C-39.20399856567383,170.90199279785156 -40.672000885009766,168.49899291992188 -41.917999267578125,165.6009979248047 C-41.917999267578125,165.6009979248047 -42.03099822998047,165.33599853515625 -42.03099822998047,165.33599853515625 C-44.327999114990234,160.04600524902344 -45.685001373291016,155.2220001220703 -47.124000549316406,150.11399841308594 C-47.91299819946289,147.31100463867188 -48.72999954223633,144.41200256347656 -49.71500015258789,141.4340057373047 C-50.11899948120117,140.21499633789062 -50.55699920654297,138.54299926757812 -50.9900016784668,136.88600158691406 C-51.237998962402344,135.9409942626953 -51.48400115966797,135.0030059814453 -51.71900177001953,134.16700744628906 C-52.20000076293945,132.46800231933594 -52.65299987792969,130.57000732421875 -53.09700012207031,128.71200561523438 C-53.09700012207031,128.71200561523438 -53.558998107910156,126.78800201416016 -53.558998107910156,126.78800201416016 C-54.14799880981445,124.37100219726562 -54.7599983215332,121.83399963378906 -55.28799819946289,119.36499786376953 C-55.72100067138672,117.33200073242188 -56.10900115966797,115.27400207519531 -56.5,113.21700286865234 C-56.5,113.21700286865234 -56.80099868774414,111.6259994506836 -56.80099868774414,111.6259994506836 C-60.88800048828125,102.88400268554688 -55.48099899291992,89.36499786376953 -60.595001220703125,81.77300262451172 C-61.14699935913086,71.34200286865234 -61.18600082397461,61.49399948120117 -60.71099853515625,51.665000915527344z"></path></g><g opacity="1" transform="matrix(1,0,0,1,500,140.77699279785156)"><path fill="rgb(0,0,0)" fill-opacity="1" d=" M0,-89.60700225830078 C-119.8759994506836,-89.60700225830078 -232.56900024414062,-42.95000076293945 -317.343994140625,41.82500076293945 C-317.343994140625,41.82500076293945 -304.510009765625,54.659000396728516 -304.510009765625,54.659000396728516 C-304.510009765625,54.659000396728516 -281.552001953125,77.59100341796875 -281.552001953125,77.59100341796875 C-281.552001953125,77.59100341796875 -269.5360107421875,89.60700225830078 -269.5360107421875,89.60700225830078 C-197.54400634765625,17.614999771118164 -101.8270034790039,-22.011999130249023 0,-22.011999130249023 C101.8270034790039,-22.011999130249023 197.54400634765625,17.614999771118164 269.5360107421875,89.60700225830078 C269.5360107421875,89.60700225830078 281.552001953125,77.59100341796875 281.552001953125,77.59100341796875 C281.552001953125,77.59100341796875 304.510009765625,54.659000396728516 304.510009765625,54.659000396728516 C304.510009765625,54.659000396728516 317.343994140625,41.82500076293945 317.343994140625,41.82500076293945 C232.56900024414062,-42.95000076293945 119.8759994506836,-89.60700225830078 0,-89.60700225830078z"></path></g><g opacity="1" transform="matrix(1,0,0,1,516.9539794921875,912.4140014648438)"><path fill="rgb(126,105,226)" fill-opacity="1" d=" M18.68899917602539,36.41600036621094 C18.68899917602539,36.41600036621094 -18.690000534057617,36.41600036621094 -18.690000534057617,36.41600036621094 C-38.801998138427734,36.41600036621094 -55.10599899291992,20.11199951171875 -55.10599899291992,0 C-55.10599899291992,0 -55.10599899291992,0 -55.10599899291992,0 C-55.10599899291992,-20.11199951171875 -38.801998138427734,-36.41600036621094 -18.690000534057617,-36.41600036621094 C-18.690000534057617,-36.41600036621094 18.68899917602539,-36.41600036621094 18.68899917602539,-36.41600036621094 C38.80099868774414,-36.41600036621094 55.10599899291992,-20.11199951171875 55.10599899291992,0 C55.10599899291992,0 55.10599899291992,0 55.10599899291992,0 C55.10599899291992,20.11199951171875 38.80099868774414,36.41600036621094 18.68899917602539,36.41600036621094z"></path></g><g opacity="1" transform="matrix(1,0,0,1,880.5750122070312,409.2300109863281)"><path fill="rgb(0,0,0)" fill-opacity="1" d=" M60.71099853515625,51.665000915527344 C52.777000427246094,-29.597999572753906 33.85100173950195,-118.82099914550781 -36.44499969482422,-170.1909942626953 C-44.555999755859375,-175.5989990234375 -63.481998443603516,-148.56100463867188 -60.77799987792969,-143.1540069580078 C-6.703999996185303,-64.74600219726562 14.925000190734863,21.77199935913086 12.020999908447266,111.81600189208984 C11.782999992370605,113.85600280761719 11.53499984741211,115.96800231933594 11.26099967956543,117.98300170898438 C11.057000160217285,119.44999694824219 10.840999603271484,120.927001953125 10.62399959564209,122.38999938964844 C10.62399959564209,122.38999938964844 10.211999893188477,125.2040023803711 10.211999893188477,125.2040023803711 C9.913999557495117,127.24600219726562 9.597999572753906,129.41200256347656 9.35200023651123,131.35299682617188 C9.35200023651123,131.35299682617188 9.192999839782715,132.60400390625 9.192999839782715,132.60400390625 C8.961000442504883,134.4510040283203 8.699000358581543,136.51300048828125 8.503999710083008,137.968994140625 C8.503999710083008,137.968994140625 8.015999794006348,141.6490020751953 8.015999794006348,141.6490020751953 C7.570000171661377,145.02099609375 7.150000095367432,148.2220001220703 6.605999946594238,151.5749969482422 C6.605999946594238,151.5749969482422 6.183000087738037,154.2209930419922 6.183000087738037,154.2209930419922 C5.610000133514404,157.85899353027344 5.066999912261963,161.2969970703125 4.243000030517578,164.8260040283203 C4.243000030517578,164.8260040283203 3.5380001068115234,167.83799743652344 3.5380001068115234,167.83799743652344 C3.5380001068115234,167.83799743652344 6.616000175476074,168.13299560546875 6.616000175476074,168.13299560546875 C8.052000045776367,168.27000427246094 8.541000366210938,168.3280029296875 9.111000061035156,168.39700317382812 C9.746999740600586,168.4739990234375 10.480999946594238,168.56300354003906 12.64900016784668,168.7779998779297 C13.852999687194824,168.8979949951172 15.755000114440918,169.11599731445312 17.948999404907227,169.3699951171875 C23.43000030517578,170.00399780273438 30.253000259399414,170.79299926757812 33.4739990234375,170.89300537109375 C33.66400146484375,170.89999389648438 33.8489990234375,170.90199279785156 34.03099822998047,170.90199279785156 C39.20399856567383,170.90199279785156 40.672000885009766,168.49899291992188 41.917999267578125,165.6009979248047 C41.917999267578125,165.6009979248047 42.03099822998047,165.33599853515625 42.03099822998047,165.33599853515625 C44.327999114990234,160.04600524902344 45.685001373291016,155.2220001220703 47.124000549316406,150.11399841308594 C47.91299819946289,147.31100463867188 48.72999954223633,144.41200256347656 49.71500015258789,141.4340057373047 C50.11899948120117,140.21499633789062 50.55699920654297,138.54299926757812 50.9900016784668,136.88600158691406 C51.237998962402344,135.9409942626953 51.48400115966797,135.0030059814453 51.71900177001953,134.16700744628906 C52.20000076293945,132.46800231933594 52.65299987792969,130.57000732421875 53.09700012207031,128.71200561523438 C53.09700012207031,128.71200561523438 53.558998107910156,126.78800201416016 53.558998107910156,126.78800201416016 C54.14799880981445,124.37100219726562 54.7599983215332,121.83399963378906 55.28799819946289,119.36499786376953 C55.72100067138672,117.33200073242188 56.10900115966797,115.27400207519531 56.5,113.21700286865234 C56.5,113.21700286865234 56.80099868774414,111.6259994506836 56.80099868774414,111.6259994506836 C60.88800048828125,102.88400268554688 55.48099899291992,89.36499786376953 60.595001220703125,81.77300262451172 C61.14699935913086,71.34200286865234 61.18600082397461,61.49399948120117 60.71099853515625,51.665000915527344z"></path></g></g><g clip-path="url(#__lottie_element_1036)" style="display: none;" transform="matrix(1.0001699924468994,0,0,1.0001699924468994,99.91500854492188,99.76373291015625)" opacity="1"><g style="display: block;" transform="matrix(0.9143486618995667,0,0,0.9143486618995667,402.1700134277344,500.9070129394531)" opacity="0.6573947948037707"><g opacity="1" transform="matrix(1,0,0,1,0,0)"><path fill="rgb(255,255,255)" fill-opacity="1" d=" M34.9630012512207,0 C34.9630012512207,19.30900001525879 19.30900001525879,34.9630012512207 0,34.9630012512207 C-19.30900001525879,34.9630012512207 -34.9630012512207,19.30900001525879 -34.9630012512207,0 C-34.9630012512207,-19.30900001525879 -19.30900001525879,-34.9630012512207 0,-34.9630012512207 C19.30900001525879,-34.9630012512207 34.9630012512207,-19.30900001525879 34.9630012512207,0z"></path></g></g><g style="display: block;" transform="matrix(0.9984312653541565,0,0,0.9984312653541565,500.010986328125,500.9070129394531)" opacity="0.9937249098796881"><g opacity="1" transform="matrix(1,0,0,1,0,0)"><path fill="rgb(255,255,255)" fill-opacity="1" d=" M34.9630012512207,0 C34.9630012512207,19.30900001525879 19.30900001525879,34.9630012512207 0,34.9630012512207 C-19.30900001525879,34.9630012512207 -34.9630012512207,19.30900001525879 -34.9630012512207,0 C-34.9630012512207,-19.30900001525879 -19.30900001525879,-34.9630012512207 0,-34.9630012512207 C19.30900001525879,-34.9630012512207 34.9630012512207,-19.30900001525879 34.9630012512207,0z"></path></g></g><g style="display: block;" transform="matrix(0.9441764950752258,0,0,0.9441764950752258,597.8510131835938,500.9070129394531)" opacity="0.7767060086391415"><g opacity="1" transform="matrix(1,0,0,1,0,0)"><path fill="rgb(255,255,255)" fill-opacity="1" d=" M34.9630012512207,0 C34.9630012512207,19.30900001525879 19.30900001525879,34.9630012512207 0,34.9630012512207 C-19.30900001525879,34.9630012512207 -34.9630012512207,19.30900001525879 -34.9630012512207,0 C-34.9630012512207,-19.30900001525879 -19.30900001525879,-34.9630012512207 0,-34.9630012512207 C19.30900001525879,-34.9630012512207 34.9630012512207,-19.30900001525879 34.9630012512207,0z"></path></g></g></g><g clip-path="url(#__lottie_element_1023)" style="display: none;" transform="matrix(1.0001699924468994,0,0,1.0001699924468994,99.91500854492188,99.76373291015625)" opacity="1"><g style="display: block;" transform="matrix(0.8561095595359802,0,0,0.8561095595359802,402.1700134277344,500.9070129394531)" opacity="0.4244380400310984"><g opacity="1" transform="matrix(1,0,0,1,0,0)"><path fill="rgb(255,255,255)" fill-opacity="1" d=" M34.9630012512207,0 C34.9630012512207,19.30900001525879 19.30900001525879,34.9630012512207 0,34.9630012512207 C-19.30900001525879,34.9630012512207 -34.9630012512207,19.30900001525879 -34.9630012512207,0 C-34.9630012512207,-19.30900001525879 -19.30900001525879,-34.9630012512207 0,-34.9630012512207 C19.30900001525879,-34.9630012512207 34.9630012512207,-19.30900001525879 34.9630012512207,0z"></path></g></g><g style="display: block;" transform="matrix(0.9685148596763611,0,0,0.9685148596763611,500.010986328125,500.9070129394531)" opacity="0.8740594387281075"><g opacity="1" transform="matrix(1,0,0,1,0,0)"><path fill="rgb(255,255,255)" fill-opacity="1" d=" M34.9630012512207,0 C34.9630012512207,19.30900001525879 19.30900001525879,34.9630012512207 0,34.9630012512207 C-19.30900001525879,34.9630012512207 -34.9630012512207,19.30900001525879 -34.9630012512207,0 C-34.9630012512207,-19.30900001525879 -19.30900001525879,-34.9630012512207 0,-34.9630012512207 C19.30900001525879,-34.9630012512207 34.9630012512207,-19.30900001525879 34.9630012512207,0z"></path></g></g><g style="display: block;" transform="matrix(0.9879814386367798,0,0,0.9879814386367798,597.8510131835938,500.9070129394531)" opacity="0.9519256574687336"><g opacity="1" transform="matrix(1,0,0,1,0,0)"><path fill="rgb(255,255,255)" fill-opacity="1" d=" M34.9630012512207,0 C34.9630012512207,19.30900001525879 19.30900001525879,34.9630012512207 0,34.9630012512207 C-19.30900001525879,34.9630012512207 -34.9630012512207,19.30900001525879 -34.9630012512207,0 C-34.9630012512207,-19.30900001525879 -19.30900001525879,-34.9630012512207 0,-34.9630012512207 C19.30900001525879,-34.9630012512207 34.9630012512207,-19.30900001525879 34.9630012512207,0z"></path></g></g></g><g clip-path="url(#__lottie_element_1010)" style="display: block;" transform="matrix(1.0001699924468994,0,0,1.0001699924468994,99.91500854492188,99.76373291015625)" opacity="1"><g style="display: block;" transform="matrix(0.900239884853363,0,0,0.900239884853363,402.1700134277344,500.9070129394531)" opacity="0.6009595194231239"><g opacity="1" transform="matrix(1,0,0,1,0,0)"><path fill="rgb(255,255,255)" fill-opacity="1" d=" M34.9630012512207,0 C34.9630012512207,19.30900001525879 19.30900001525879,34.9630012512207 0,34.9630012512207 C-19.30900001525879,34.9630012512207 -34.9630012512207,19.30900001525879 -34.9630012512207,0 C-34.9630012512207,-19.30900001525879 -19.30900001525879,-34.9630012512207 0,-34.9630012512207 C19.30900001525879,-34.9630012512207 34.9630012512207,-19.30900001525879 34.9630012512207,0z"></path></g></g><g style="display: block;" transform="matrix(0.805694580078125,0,0,0.805694580078125,500.010986328125,500.9070129394531)" opacity="0.2227783367875915"><g opacity="1" transform="matrix(1,0,0,1,0,0)"><path fill="rgb(255,255,255)" fill-opacity="1" d=" M34.9630012512207,0 C34.9630012512207,19.30900001525879 19.30900001525879,34.9630012512207 0,34.9630012512207 C-19.30900001525879,34.9630012512207 -34.9630012512207,19.30900001525879 -34.9630012512207,0 C-34.9630012512207,-19.30900001525879 -19.30900001525879,-34.9630012512207 0,-34.9630012512207 C19.30900001525879,-34.9630012512207 34.9630012512207,-19.30900001525879 34.9630012512207,0z"></path></g></g><g style="display: block;" transform="matrix(0.8430197238922119,0,0,0.8430197238922119,597.8510131835938,500.9070129394531)" opacity="0.3720789514617768"><g opacity="1" transform="matrix(1,0,0,1,0,0)"><path fill="rgb(255,255,255)" fill-opacity="1" d=" M34.9630012512207,0 C34.9630012512207,19.30900001525879 19.30900001525879,34.9630012512207 0,34.9630012512207 C-19.30900001525879,34.9630012512207 -34.9630012512207,19.30900001525879 -34.9630012512207,0 C-34.9630012512207,-19.30900001525879 -19.30900001525879,-34.9630012512207 0,-34.9630012512207 C19.30900001525879,-34.9630012512207 34.9630012512207,-19.30900001525879 34.9630012512207,0z"></path></g></g></g></g></svg>